<svg width="2005" height="669" viewBox="0 0 2005 669" fill="none" xmlns="http://www.w3.org/2000/svg">
<g clip-path="url(#clip0)">
<rect width="2005" height="669" fill="#FCFF5F"/>
<line x1="1688.86" y1="688.105" x2="2009.06" y2="430.342" stroke="#7102FF" stroke-width="10"/>
<line x1="1715.86" y1="712.869" x2="2036.06" y2="455.105" stroke="#7102FF" stroke-width="10"/>
<path d="M226.484 320.094C226.484 317.438 225.547 315.406 223.672 314C221.797 312.562 218.422 311.062 213.547 309.5C208.672 307.906 204.812 306.344 201.969 304.812C194.219 300.625 190.344 294.984 190.344 287.891C190.344 284.203 191.375 280.922 193.438 278.047C195.531 275.141 198.516 272.875 202.391 271.25C206.297 269.625 210.672 268.812 215.516 268.812C220.391 268.812 224.734 269.703 228.547 271.484C232.359 273.234 235.312 275.719 237.406 278.938C239.531 282.156 240.594 285.812 240.594 289.906H226.531C226.531 286.781 225.547 284.359 223.578 282.641C221.609 280.891 218.844 280.016 215.281 280.016C211.844 280.016 209.172 280.75 207.266 282.219C205.359 283.656 204.406 285.562 204.406 287.938C204.406 290.156 205.516 292.016 207.734 293.516C209.984 295.016 213.281 296.422 217.625 297.734C225.625 300.141 231.453 303.125 235.109 306.688C238.766 310.25 240.594 314.688 240.594 320C240.594 325.906 238.359 330.547 233.891 333.922C229.422 337.266 223.406 338.938 215.844 338.938C210.594 338.938 205.812 337.984 201.5 336.078C197.188 334.141 193.891 331.5 191.609 328.156C189.359 324.812 188.234 320.938 188.234 316.531H202.344C202.344 324.062 206.844 327.828 215.844 327.828C219.188 327.828 221.797 327.156 223.672 325.812C225.547 324.438 226.484 322.531 226.484 320.094ZM291.219 308.422H264.219V326.703H295.906V338H250.156V269.75H295.812V281.141H264.219V297.406H291.219V308.422ZM322.531 269.75L340.062 319.25L357.5 269.75H375.969V338H361.859V319.344L363.266 287.141L344.844 338H335.188L316.812 287.188L318.219 319.344V338H304.156V269.75H322.531ZM402.312 313.953V338H388.25V269.75H414.875C420 269.75 424.5 270.688 428.375 272.562C432.281 274.438 435.281 277.109 437.375 280.578C439.469 284.016 440.516 287.938 440.516 292.344C440.516 299.031 438.219 304.312 433.625 308.188C429.062 312.031 422.734 313.953 414.641 313.953H402.312ZM402.312 302.562H414.875C418.594 302.562 421.422 301.688 423.359 299.938C425.328 298.188 426.312 295.688 426.312 292.438C426.312 289.094 425.328 286.391 423.359 284.328C421.391 282.266 418.672 281.203 415.203 281.141H402.312V302.562ZM475.484 313.016H464.281V338H450.219V269.75H475.578C483.641 269.75 489.859 271.547 494.234 275.141C498.609 278.734 500.797 283.812 500.797 290.375C500.797 295.031 499.781 298.922 497.75 302.047C495.75 305.141 492.703 307.609 488.609 309.453L503.375 337.344V338H488.281L475.484 313.016ZM464.281 301.625H475.625C479.156 301.625 481.891 300.734 483.828 298.953C485.766 297.141 486.734 294.656 486.734 291.5C486.734 288.281 485.812 285.75 483.969 283.906C482.156 282.062 479.359 281.141 475.578 281.141H464.281V301.625ZM552.594 308.422H525.594V326.703H557.281V338H511.531V269.75H557.188V281.141H525.594V297.406H552.594V308.422ZM645.5 305.422C645.5 312.141 644.312 318.031 641.938 323.094C639.562 328.156 636.156 332.062 631.719 334.812C627.312 337.562 622.25 338.938 616.531 338.938C610.875 338.938 605.828 337.578 601.391 334.859C596.953 332.141 593.516 328.266 591.078 323.234C588.641 318.172 587.406 312.359 587.375 305.797V302.422C587.375 295.703 588.578 289.797 590.984 284.703C593.422 279.578 596.844 275.656 601.25 272.938C605.688 270.188 610.75 268.812 616.438 268.812C622.125 268.812 627.172 270.188 631.578 272.938C636.016 275.656 639.438 279.578 641.844 284.703C644.281 289.797 645.5 295.688 645.5 302.375V305.422ZM631.25 302.328C631.25 295.172 629.969 289.734 627.406 286.016C624.844 282.297 621.188 280.438 616.438 280.438C611.719 280.438 608.078 282.281 605.516 285.969C602.953 289.625 601.656 295 601.625 302.094V305.422C601.625 312.391 602.906 317.797 605.469 321.641C608.031 325.484 611.719 327.406 616.531 327.406C621.25 327.406 624.875 325.562 627.406 321.875C629.938 318.156 631.219 312.75 631.25 305.656V302.328ZM691.109 320.094C691.109 317.438 690.172 315.406 688.297 314C686.422 312.562 683.047 311.062 678.172 309.5C673.297 307.906 669.438 306.344 666.594 304.812C658.844 300.625 654.969 294.984 654.969 287.891C654.969 284.203 656 280.922 658.062 278.047C660.156 275.141 663.141 272.875 667.016 271.25C670.922 269.625 675.297 268.812 680.141 268.812C685.016 268.812 689.359 269.703 693.172 271.484C696.984 273.234 699.938 275.719 702.031 278.938C704.156 282.156 705.219 285.812 705.219 289.906H691.156C691.156 286.781 690.172 284.359 688.203 282.641C686.234 280.891 683.469 280.016 679.906 280.016C676.469 280.016 673.797 280.75 671.891 282.219C669.984 283.656 669.031 285.562 669.031 287.938C669.031 290.156 670.141 292.016 672.359 293.516C674.609 295.016 677.906 296.422 682.25 297.734C690.25 300.141 696.078 303.125 699.734 306.688C703.391 310.25 705.219 314.688 705.219 320C705.219 325.906 702.984 330.547 698.516 333.922C694.047 337.266 688.031 338.938 680.469 338.938C675.219 338.938 670.438 337.984 666.125 336.078C661.812 334.141 658.516 331.5 656.234 328.156C653.984 324.812 652.859 320.938 652.859 316.531H666.969C666.969 324.062 671.469 327.828 680.469 327.828C683.812 327.828 686.422 327.156 688.297 325.812C690.172 324.438 691.109 322.531 691.109 320.094ZM757.062 269.75L774.594 319.25L792.031 269.75H810.5V338H796.391V319.344L797.797 287.141L779.375 338H769.719L751.344 287.188L752.75 319.344V338H738.688V269.75H757.062ZM863.844 308.422H836.844V326.703H868.531V338H822.781V269.75H868.438V281.141H836.844V297.406H863.844V308.422ZM890.844 326.703H920.703V338H876.781V269.75H890.844V326.703ZM984.359 338H970.297V308.75H942.875V338H928.812V269.75H942.875V297.406H970.297V269.75H984.359V338ZM1052.75 305.422C1052.75 312.141 1051.56 318.031 1049.19 323.094C1046.81 328.156 1043.41 332.062 1038.97 334.812C1034.56 337.562 1029.5 338.938 1023.78 338.938C1018.12 338.938 1013.08 337.578 1008.64 334.859C1004.2 332.141 1000.77 328.266 998.328 323.234C995.891 318.172 994.656 312.359 994.625 305.797V302.422C994.625 295.703 995.828 289.797 998.234 284.703C1000.67 279.578 1004.09 275.656 1008.5 272.938C1012.94 270.188 1018 268.812 1023.69 268.812C1029.38 268.812 1034.42 270.188 1038.83 272.938C1043.27 275.656 1046.69 279.578 1049.09 284.703C1051.53 289.797 1052.75 295.688 1052.75 302.375V305.422ZM1038.5 302.328C1038.5 295.172 1037.22 289.734 1034.66 286.016C1032.09 282.297 1028.44 280.438 1023.69 280.438C1018.97 280.438 1015.33 282.281 1012.77 285.969C1010.2 289.625 1008.91 295 1008.88 302.094V305.422C1008.88 312.391 1010.16 317.797 1012.72 321.641C1015.28 325.484 1018.97 327.406 1023.78 327.406C1028.5 327.406 1032.12 325.562 1034.66 321.875C1037.19 318.156 1038.47 312.75 1038.5 305.656V302.328ZM1088.23 313.016H1077.03V338H1062.97V269.75H1088.33C1096.39 269.75 1102.61 271.547 1106.98 275.141C1111.36 278.734 1113.55 283.812 1113.55 290.375C1113.55 295.031 1112.53 298.922 1110.5 302.047C1108.5 305.141 1105.45 307.609 1101.36 309.453L1116.12 337.344V338H1101.03L1088.23 313.016ZM1077.03 301.625H1088.38C1091.91 301.625 1094.64 300.734 1096.58 298.953C1098.52 297.141 1099.48 294.656 1099.48 291.5C1099.48 288.281 1098.56 285.75 1096.72 283.906C1094.91 282.062 1092.11 281.141 1088.33 281.141H1077.03V301.625ZM1165.34 308.422H1138.34V326.703H1170.03V338H1124.28V269.75H1169.94V281.141H1138.34V297.406H1165.34V308.422ZM1213.67 320.094C1213.67 317.438 1212.73 315.406 1210.86 314C1208.98 312.562 1205.61 311.062 1200.73 309.5C1195.86 307.906 1192 306.344 1189.16 304.812C1181.41 300.625 1177.53 294.984 1177.53 287.891C1177.53 284.203 1178.56 280.922 1180.62 278.047C1182.72 275.141 1185.7 272.875 1189.58 271.25C1193.48 269.625 1197.86 268.812 1202.7 268.812C1207.58 268.812 1211.92 269.703 1215.73 271.484C1219.55 273.234 1222.5 275.719 1224.59 278.938C1226.72 282.156 1227.78 285.812 1227.78 289.906H1213.72C1213.72 286.781 1212.73 284.359 1210.77 282.641C1208.8 280.891 1206.03 280.016 1202.47 280.016C1199.03 280.016 1196.36 280.75 1194.45 282.219C1192.55 283.656 1191.59 285.562 1191.59 287.938C1191.59 290.156 1192.7 292.016 1194.92 293.516C1197.17 295.016 1200.47 296.422 1204.81 297.734C1212.81 300.141 1218.64 303.125 1222.3 306.688C1225.95 310.25 1227.78 314.688 1227.78 320C1227.78 325.906 1225.55 330.547 1221.08 333.922C1216.61 337.266 1210.59 338.938 1203.03 338.938C1197.78 338.938 1193 337.984 1188.69 336.078C1184.38 334.141 1181.08 331.5 1178.8 328.156C1176.55 324.812 1175.42 320.938 1175.42 316.531H1189.53C1189.53 324.062 1194.03 327.828 1203.03 327.828C1206.38 327.828 1208.98 327.156 1210.86 325.812C1212.73 324.438 1213.67 322.531 1213.67 320.094ZM1261.25 338V269.75H1282.25C1288.25 269.75 1293.61 271.109 1298.33 273.828C1303.08 276.516 1306.78 280.359 1309.44 285.359C1312.09 290.328 1313.42 295.984 1313.42 302.328V305.469C1313.42 311.812 1312.11 317.453 1309.48 322.391C1306.89 327.328 1303.22 331.156 1298.47 333.875C1293.72 336.594 1288.36 337.969 1282.39 338H1261.25ZM1275.31 281.141V326.703H1282.11C1287.61 326.703 1291.81 324.906 1294.72 321.312C1297.62 317.719 1299.11 312.578 1299.17 305.891V302.281C1299.17 295.344 1297.73 290.094 1294.86 286.531C1291.98 282.938 1287.78 281.141 1282.25 281.141H1275.31ZM1364.75 308.422H1337.75V326.703H1369.44V338H1323.69V269.75H1369.34V281.141H1337.75V297.406H1364.75V308.422ZM1413.08 320.094C1413.08 317.438 1412.14 315.406 1410.27 314C1408.39 312.562 1405.02 311.062 1400.14 309.5C1395.27 307.906 1391.41 306.344 1388.56 304.812C1380.81 300.625 1376.94 294.984 1376.94 287.891C1376.94 284.203 1377.97 280.922 1380.03 278.047C1382.12 275.141 1385.11 272.875 1388.98 271.25C1392.89 269.625 1397.27 268.812 1402.11 268.812C1406.98 268.812 1411.33 269.703 1415.14 271.484C1418.95 273.234 1421.91 275.719 1424 278.938C1426.12 282.156 1427.19 285.812 1427.19 289.906H1413.12C1413.12 286.781 1412.14 284.359 1410.17 282.641C1408.2 280.891 1405.44 280.016 1401.88 280.016C1398.44 280.016 1395.77 280.75 1393.86 282.219C1391.95 283.656 1391 285.562 1391 287.938C1391 290.156 1392.11 292.016 1394.33 293.516C1396.58 295.016 1399.88 296.422 1404.22 297.734C1412.22 300.141 1418.05 303.125 1421.7 306.688C1425.36 310.25 1427.19 314.688 1427.19 320C1427.19 325.906 1424.95 330.547 1420.48 333.922C1416.02 337.266 1410 338.938 1402.44 338.938C1397.19 338.938 1392.41 337.984 1388.09 336.078C1383.78 334.141 1380.48 331.5 1378.2 328.156C1375.95 324.812 1374.83 320.938 1374.83 316.531H1388.94C1388.94 324.062 1393.44 327.828 1402.44 327.828C1405.78 327.828 1408.39 327.156 1410.27 325.812C1412.14 324.438 1413.08 322.531 1413.08 320.094ZM1490.33 315.266C1489.8 322.609 1487.08 328.391 1482.17 332.609C1477.3 336.828 1470.86 338.938 1462.86 338.938C1454.11 338.938 1447.22 336 1442.19 330.125C1437.19 324.219 1434.69 316.125 1434.69 305.844V301.672C1434.69 295.109 1435.84 289.328 1438.16 284.328C1440.47 279.328 1443.77 275.5 1448.05 272.844C1452.36 270.156 1457.36 268.812 1463.05 268.812C1470.92 268.812 1477.27 270.922 1482.08 275.141C1486.89 279.359 1489.67 285.281 1490.42 292.906H1476.36C1476.02 288.5 1474.78 285.312 1472.66 283.344C1470.56 281.344 1467.36 280.344 1463.05 280.344C1458.36 280.344 1454.84 282.031 1452.5 285.406C1450.19 288.75 1449 293.953 1448.94 301.016V306.172C1448.94 313.547 1450.05 318.938 1452.27 322.344C1454.52 325.75 1458.05 327.453 1462.86 327.453C1467.2 327.453 1470.44 326.469 1472.56 324.5C1474.72 322.5 1475.95 319.422 1476.27 315.266H1490.33ZM1555.62 305.422C1555.62 312.141 1554.44 318.031 1552.06 323.094C1549.69 328.156 1546.28 332.062 1541.84 334.812C1537.44 337.562 1532.38 338.938 1526.66 338.938C1521 338.938 1515.95 337.578 1511.52 334.859C1507.08 332.141 1503.64 328.266 1501.2 323.234C1498.77 318.172 1497.53 312.359 1497.5 305.797V302.422C1497.5 295.703 1498.7 289.797 1501.11 284.703C1503.55 279.578 1506.97 275.656 1511.38 272.938C1515.81 270.188 1520.88 268.812 1526.56 268.812C1532.25 268.812 1537.3 270.188 1541.7 272.938C1546.14 275.656 1549.56 279.578 1551.97 284.703C1554.41 289.797 1555.62 295.688 1555.62 302.375V305.422ZM1541.38 302.328C1541.38 295.172 1540.09 289.734 1537.53 286.016C1534.97 282.297 1531.31 280.438 1526.56 280.438C1521.84 280.438 1518.2 282.281 1515.64 285.969C1513.08 289.625 1511.78 295 1511.75 302.094V305.422C1511.75 312.391 1513.03 317.797 1515.59 321.641C1518.16 325.484 1521.84 327.406 1526.66 327.406C1531.38 327.406 1535 325.562 1537.53 321.875C1540.06 318.156 1541.34 312.75 1541.38 305.656V302.328ZM1621.34 338H1607.28L1579.91 293.094V338H1565.84V269.75H1579.91L1607.33 314.75V269.75H1621.34V338ZM1683.59 281.141H1662.69V338H1648.62V281.141H1628V269.75H1683.59V281.141ZM1746.41 305.422C1746.41 312.141 1745.22 318.031 1742.84 323.094C1740.47 328.156 1737.06 332.062 1732.62 334.812C1728.22 337.562 1723.16 338.938 1717.44 338.938C1711.78 338.938 1706.73 337.578 1702.3 334.859C1697.86 332.141 1694.42 328.266 1691.98 323.234C1689.55 318.172 1688.31 312.359 1688.28 305.797V302.422C1688.28 295.703 1689.48 289.797 1691.89 284.703C1694.33 279.578 1697.75 275.656 1702.16 272.938C1706.59 270.188 1711.66 268.812 1717.34 268.812C1723.03 268.812 1728.08 270.188 1732.48 272.938C1736.92 275.656 1740.34 279.578 1742.75 284.703C1745.19 289.797 1746.41 295.688 1746.41 302.375V305.422ZM1732.16 302.328C1732.16 295.172 1730.88 289.734 1728.31 286.016C1725.75 282.297 1722.09 280.438 1717.34 280.438C1712.62 280.438 1708.98 282.281 1706.42 285.969C1703.86 289.625 1702.56 295 1702.53 302.094V305.422C1702.53 312.391 1703.81 317.797 1706.38 321.641C1708.94 325.484 1712.62 327.406 1717.44 327.406C1722.16 327.406 1725.78 325.562 1728.31 321.875C1730.84 318.156 1732.12 312.75 1732.16 305.656V302.328ZM1792.02 320.094C1792.02 317.438 1791.08 315.406 1789.2 314C1787.33 312.562 1783.95 311.062 1779.08 309.5C1774.2 307.906 1770.34 306.344 1767.5 304.812C1759.75 300.625 1755.88 294.984 1755.88 287.891C1755.88 284.203 1756.91 280.922 1758.97 278.047C1761.06 275.141 1764.05 272.875 1767.92 271.25C1771.83 269.625 1776.2 268.812 1781.05 268.812C1785.92 268.812 1790.27 269.703 1794.08 271.484C1797.89 273.234 1800.84 275.719 1802.94 278.938C1805.06 282.156 1806.12 285.812 1806.12 289.906H1792.06C1792.06 286.781 1791.08 284.359 1789.11 282.641C1787.14 280.891 1784.38 280.016 1780.81 280.016C1777.38 280.016 1774.7 280.75 1772.8 282.219C1770.89 283.656 1769.94 285.562 1769.94 287.938C1769.94 290.156 1771.05 292.016 1773.27 293.516C1775.52 295.016 1778.81 296.422 1783.16 297.734C1791.16 300.141 1796.98 303.125 1800.64 306.688C1804.3 310.25 1806.12 314.688 1806.12 320C1806.12 325.906 1803.89 330.547 1799.42 333.922C1794.95 337.266 1788.94 338.938 1781.38 338.938C1776.12 338.938 1771.34 337.984 1767.03 336.078C1762.72 334.141 1759.42 331.5 1757.14 328.156C1754.89 324.812 1753.77 320.938 1753.77 316.531H1767.88C1767.88 324.062 1772.38 327.828 1781.38 327.828C1784.72 327.828 1787.33 327.156 1789.2 325.812C1791.08 324.438 1792.02 322.531 1792.02 320.094Z" fill="#7102FF"/>
</g>
<defs>
<clipPath id="clip0">
<rect width="2005" height="669" fill="white"/>
</clipPath>
</defs>
</svg>
